/* XPM */
static char * xnm_xpm[] = {
"40 40 60 1",
" 	c None",
"@	c #0F0D01",
"#	c #9D8A06",
"$	c #AF9A07",
"%	c #796A05",
"&	c #080701",
"*	c #1E1A02",
"=	c #756604",
"-	c #756704",
";	c #756705",
">	c #2C2702",
",	c #EACD09",
"'	c #E9CC08",
")	c #3B3302",
"!	c #3B3403",
"~	c #584D04",
"{	c #DBC008",
"]	c #463D03",
"^	c #CCB308",
"/	c #B39D07",
"(	c #584D03",
"_	c #332D02",
":	c #AF9906",
"<	c #423A03",
"[	c #8E7D05",
"}	c #CCB307",
"|	c #928006",
"1	c #C9B007",
"2	c #928005",
"3	c #A18D06",
"4	c #847305",
"5	c #6E6004",
"6	c #998606",
"7	c #D4B908",
"8	c #373002",
"9	c #5C5004",
"0	c #494003",
"a	c #DFC308",
"b	c #807005",
"c	c #161401",
"d	c #BAA307",
"e	c #211D02",
"f	c #131001",
"g	c #302A02",
"h	c #252002",
"i	c #514703",
"j	c #4D4303",
"k	c #665A04",
"l	c #A89306",
"m	c #1E1A01",
"n	c #544A03",
"o	c #1A1701",
"p	c #3E3703",
"q	c #B7A007",
"r	c #0B0A01",
"s	c #BEA607",
"t	c #292402",
"u	c #968306",
"v	c #D7BD08",
"w	c #C1A907",
"                                        ",
"                 @#$%&                  ",
"   *======-=;;;;>$,,');;;;=-==========  ",
"   !'''''''',,,,~,{$%]^^^^^^^^^^^^^^/!  ",
"   !'(((((((~~~~_,:  <~~~~~~~~~~~~~[}!  ",
"   !'('''~'',$|1%,: ,};,,,~,,,2$,,,~}!  ",
"   !'('''~'',$|2$,: ,};,,,~,,,2$,,,~}!  ",
"   !'('''~'',$|2$,}>3};,,,~,,,2$,,,~}!  ",
"   !'<$$$<:$$455$,,(<6~$$7<$$$54$$$~}!  ",
"   !'82228222599$,,(9   98 02295222~}!  ",
"   !'('''~'',$|2$,,(   !(  0a,2$,,,~}!  ",
"   !'('''~'',$|2$,,(  @bc   d,2$,,,~}!  ",
"   !'('''~'',$|2$,,3  ;:    !,2$,,,~}!  ",
"   !'e(((e((~<8fg,,, h>ic   c~8<~~~~}!  ",
"   !'('''~'',$8 *,,, |;,(   c/2$,,,~}!  ",
"   !'('''~'',$  *,,,89;,,    92$,,,~}!  ",
"   !'('''~'',<  *,,,2 ;,,5    b$,,,~}!  ",
"   !'>===>===@  @$,,2 !==0     ~===~}!  ",
"   !'j^^^j^[    h;,,a_k^^^_    6^^^~}!  ",
"   !'('''~'!    |;,,');,,,)    $,,,~}!  ",
"   !'('''~9    [} ^,');,,,)>~~8$,,,~}!  ",
"   !'e(((e    f~i@d,'lmn~~o!p)h<~~~~}!  ",
"   !'('''~    |,,$0,'} ^,,0=@  $,,,~}!  ",
"   !'(''qr   h|,,,~,'} s:m&   h$,,,~}!  ",
"   !'(''n    ||,,,~,'} 8      |$,,,~}!  ",
"   !'822f   059222822h       995222~}!  ",
"   !'<$~   t$45$6|f       c$$$54$$$~}!  ",
"   !'('$;;;^:(0=m        >!,,,2$,,,~}!  ",
"   !'(''8mmm@          @uv~,,,2$,,,~}!  ",
"   !'(''%            f0!,,~,,,2$,,,~}!  ",
"   !'e((~e          ~,=c~~e~~~8<~~~~}!  ",
"   !'('''~%**cfn$$$$(,=!,,~,,,2$,,,~}!  ",
"   !'('''~'',$|,,,,,(,=!,,~,,,2$,,,~}!  ",
"   !'('''~'',$|,,,q:(,=!,,~,,,2$,,,~}!  ",
"   !'e(((e(((<8(((r /,=c((e(((8<(((~}!  ",
"   !',,,,,,,,,,,,;^,',=!,,,,,,,,,,,,}!  ",
"   @)))))))))))))m(a'wm@))))))))))))_@  ",
"                   0=m                  ",
"                                        ",
"                                        "};
